<mxfile host="Electron" modified="2020-04-11T08:27:50.889Z" agent="5.0 (Macintosh; Intel Mac OS X 10_14_5) AppleWebKit/537.36 (KHTML, like Gecko) draw.io/12.9.9 Chrome/80.0.3987.163 Electron/8.2.1 Safari/537.36" etag="Gr0497yJUQQfEN3tBWrl" version="12.9.9" type="device">
  <diagram id="SBkHgxvzu7_uguR8F3Vs" name="Page-1">
    <mxGraphModel dx="1106" dy="830" grid="1" gridSize="10" guides="1" tooltips="1" connect="1" arrows="1" fold="1" page="1" pageScale="1" pageWidth="850" pageHeight="1100" math="0" shadow="0">
      <root>
        <mxCell id="0" />
        <mxCell id="1" parent="0" />
        <mxCell id="r4k3_UZA_SzI7aF3ZPUD-1" value="req.session = null&lt;br&gt;https://www.npmjs.com/package/cookie-session&lt;br&gt;test" style="text;html=1;align=left;verticalAlign=middle;resizable=0;points=[];autosize=1;strokeColor=#000000;labelBorderColor=none;" parent="1" vertex="1">
          <mxGeometry x="240" y="255" width="270" height="50" as="geometry" />
        </mxCell>
      </root>
    </mxGraphModel>
  </diagram>
</mxfile>
